# xmcd
#
# Track frame offsets: 
#        150
#        21674
#        38187
#        49460
#        63930
#        80474
#        102007
#        115734
#        140557
#        164198
#        179473
#        192213
#        208270
#        227145
#        254738
#
# Disc length: 3464 seconds
#
# Revision: 1
# Processed by: cddbd v1.5.2PL0 Copyright (c) Steve Scherf et al.
# Submitted via: ExactAudioCopyFreeDBPlugin 1.0
#
DISCID=e50d860f
DTITLE=John Denver - The Very Best Of John Denver
DYEAR=2008
DGENRE=Country
TTITLE0=Rock Mountain High
TTITLE1=Goodbye Again
TTITLE2=Mother Nature's Son
TTITLE3=Take Me Home, Country Roads
TTITLE4=Leaving, On A Jet Plane
TTITLE5=Back Home Again
TTITLE6=Annie's Song
TTITLE7=Sweet Surrender
TTITLE8=Sunshine On My Shoulders
TTITLE9=Thank God I'm A Country Boy (Live)
TTITLE10=Baby, You Look Good To Me Tonight
TTITLE11=I'm Sorry
TTITLE12=Fly Away
TTITLE13=Calypso
TTITLE14=CD info
EXTD=
EXTT0=
EXTT1=
EXTT2=
EXTT3=
EXTT4=
EXTT5=
EXTT6=
EXTT7=
EXTT8=
EXTT9=
EXTT10=
EXTT11=
EXTT12=
EXTT13=
EXTT14=
PLAYORDER=
